<svg width="540" height="302" viewBox="0 0 540 302" fill="none" xmlns="http://www.w3.org/2000/svg">
<mask id="mask0_2_52" style="mask-type:alpha" maskUnits="userSpaceOnUse" x="0" y="0" width="540" height="302">
<rect x="0.523438" y="0.50061" width="539" height="300.765" rx="3" fill="#00B2A9"/>
</mask>
<g mask="url(#mask0_2_52)">
<rect opacity="0.3" x="0.523438" y="0.50061" width="539" height="300.765" rx="3" fill="#00B2A9"/>
<path opacity="0.3" d="M-151.876 70.3904C-150.447 67.9152 -147.806 66.3904 -144.948 66.3904L141.738 66.3904C144.596 66.3904 147.238 67.9152 148.667 70.3904L292.01 318.668C293.439 321.143 293.439 324.193 292.01 326.668L148.667 574.945C147.238 577.42 144.596 578.945 141.738 578.945L-144.948 578.945C-147.806 578.945 -150.447 577.42 -151.876 574.945L-295.219 326.668C-296.648 324.193 -296.648 321.143 -295.219 318.668L-151.876 70.3904Z" fill="white"/>
<path opacity="0.4" d="M-103.989 153.335C-102.56 150.859 -99.9191 149.335 -97.061 149.335L93.8491 149.335C96.7072 149.335 99.3483 150.859 100.777 153.335L196.232 318.668C197.661 321.143 197.661 324.192 196.232 326.668L100.777 492.001C99.3482 494.476 96.7072 496.001 93.8491 496.001L-97.061 496.001C-99.9191 496.001 -102.56 494.476 -103.989 492.001L-199.444 326.668C-200.873 324.192 -200.873 321.143 -199.444 318.668L-103.989 153.335Z" fill="white"/>
<path d="M-59.4614 235.472C-58.0323 232.997 -55.3913 231.472 -52.5331 231.472L43.533 231.472C46.3911 231.472 49.0321 232.997 50.4612 235.472L98.4943 318.668C99.9233 321.143 99.9233 324.192 98.4943 326.668L50.4612 409.863C49.0321 412.339 46.3911 413.863 43.533 413.863L-52.5331 413.863C-55.3913 413.863 -58.0323 412.339 -59.4614 409.863L-107.494 326.668C-108.923 324.192 -108.923 321.143 -107.494 318.668L-59.4614 235.472Z" fill="white"/>
</g>
</svg>
